<svg id="visual" viewBox="0 0 900 400" width="900" height="400" xmlns="http://www.w3.org/2000/svg" xmlns:xlink="http://www.w3.org/1999/xlink" version="1.1"><rect x="0" y="0" width="900" height="400" fill="#202731"></rect><path d="M0 106L21.5 106.8C43 107.7 86 109.3 128.8 117.3C171.7 125.3 214.3 139.7 257.2 147C300 154.3 343 154.7 385.8 153.2C428.7 151.7 471.3 148.3 514.2 141.5C557 134.7 600 124.3 642.8 124C685.7 123.7 728.3 133.3 771.2 134.5C814 135.7 857 128.3 878.5 124.7L900 121L900 0L878.5 0C857 0 814 0 771.2 0C728.3 0 685.7 0 642.8 0C600 0 557 0 514.2 0C471.3 0 428.7 0 385.8 0C343 0 300 0 257.2 0C214.3 0 171.7 0 128.8 0C86 0 43 0 21.5 0L0 0Z" fill="#f78a5f"></path><path d="M0 130L21.5 122.7C43 115.3 86 100.7 128.8 94C171.7 87.3 214.3 88.7 257.2 91.7C300 94.7 343 99.3 385.8 106C428.7 112.7 471.3 121.3 514.2 125.7C557 130 600 130 642.8 124.3C685.7 118.7 728.3 107.3 771.2 107.8C814 108.3 857 120.7 878.5 126.8L900 133L900 0L878.5 0C857 0 814 0 771.2 0C728.3 0 685.7 0 642.8 0C600 0 557 0 514.2 0C471.3 0 428.7 0 385.8 0C343 0 300 0 257.2 0C214.3 0 171.7 0 128.8 0C86 0 43 0 21.5 0L0 0Z" fill="#f17952"></path><path d="M0 69L21.5 69.8C43 70.7 86 72.3 128.8 78.5C171.7 84.7 214.3 95.3 257.2 99.7C300 104 343 102 385.8 94.8C428.7 87.7 471.3 75.3 514.2 74.8C557 74.3 600 85.7 642.8 91.7C685.7 97.7 728.3 98.3 771.2 98C814 97.7 857 96.3 878.5 95.7L900 95L900 0L878.5 0C857 0 814 0 771.2 0C728.3 0 685.7 0 642.8 0C600 0 557 0 514.2 0C471.3 0 428.7 0 385.8 0C343 0 300 0 257.2 0C214.3 0 171.7 0 128.8 0C86 0 43 0 21.5 0L0 0Z" fill="#ea6846"></path><path d="M0 41L21.5 41C43 41 86 41 128.8 42.3C171.7 43.7 214.3 46.3 257.2 52C300 57.7 343 66.3 385.8 67.5C428.7 68.7 471.3 62.3 514.2 62.2C557 62 600 68 642.8 66.8C685.7 65.7 728.3 57.3 771.2 51.3C814 45.3 857 41.7 878.5 39.8L900 38L900 0L878.5 0C857 0 814 0 771.2 0C728.3 0 685.7 0 642.8 0C600 0 557 0 514.2 0C471.3 0 428.7 0 385.8 0C343 0 300 0 257.2 0C214.3 0 171.7 0 128.8 0C86 0 43 0 21.5 0L0 0Z" fill="#e4553b"></path><path d="M0 20L21.5 20.8C43 21.7 86 23.3 128.8 23.5C171.7 23.7 214.3 22.3 257.2 21.7C300 21 343 21 385.8 23.2C428.7 25.3 471.3 29.7 514.2 29C557 28.3 600 22.7 642.8 21.2C685.7 19.7 728.3 22.3 771.2 24.8C814 27.3 857 29.7 878.5 30.8L900 32L900 0L878.5 0C857 0 814 0 771.2 0C728.3 0 685.7 0 642.8 0C600 0 557 0 514.2 0C471.3 0 428.7 0 385.8 0C343 0 300 0 257.2 0C214.3 0 171.7 0 128.8 0C86 0 43 0 21.5 0L0 0Z" fill="#dd3f31"></path></svg>